<svg id="visual" viewBox="0 0 900 600" width="900" height="600" xmlns="http://www.w3.org/2000/svg" xmlns:xlink="http://www.w3.org/1999/xlink" version="1.1"><rect x="0" y="0" width="900" height="600" fill="#140021"></rect><path d="M747 0L607 0L607 43L552 43L552 86L766 86L766 129L603 129L603 171L551 171L551 214L708 214L708 257L678 257L678 300L739 300L739 343L556 343L556 386L758 386L758 429L631 429L631 471L764 471L764 514L591 514L591 557L728 557L728 600L0 600L0 557L0 557L0 514L0 514L0 471L0 471L0 429L0 429L0 386L0 386L0 343L0 343L0 300L0 300L0 257L0 257L0 214L0 214L0 171L0 171L0 129L0 129L0 86L0 86L0 43L0 43L0 0L0 0Z" fill="#9900ff"></path><path d="M596 0L639 0L639 43L595 43L595 86L595 86L595 129L529 129L529 171L444 171L444 214L538 214L538 257L477 257L477 300L552 300L552 343L433 343L433 386L637 386L637 429L503 429L503 471L656 471L656 514L621 514L621 557L544 557L544 600L0 600L0 557L0 557L0 514L0 514L0 471L0 471L0 429L0 429L0 386L0 386L0 343L0 343L0 300L0 300L0 257L0 257L0 214L0 214L0 171L0 171L0 129L0 129L0 86L0 86L0 43L0 43L0 0L0 0Z" fill="#8b00e8"></path><path d="M529 0L404 0L404 43L485 43L485 86L515 86L515 129L382 129L382 171L351 171L351 214L463 214L463 257L356 257L356 300L538 300L538 343L353 343L353 386L502 386L502 429L363 429L363 471L461 471L461 514L497 514L497 557L392 557L392 600L0 600L0 557L0 557L0 514L0 514L0 471L0 471L0 429L0 429L0 386L0 386L0 343L0 343L0 300L0 300L0 257L0 257L0 214L0 214L0 171L0 171L0 129L0 129L0 86L0 86L0 43L0 43L0 0L0 0Z" fill="#7e00d1"></path><path d="M340 0L365 0L365 43L407 43L407 86L325 86L325 129L286 129L286 171L370 171L370 214L421 214L421 257L248 257L248 300L301 300L301 343L369 343L369 386L411 386L411 429L270 429L270 471L341 471L341 514L268 514L268 557L392 557L392 600L0 600L0 557L0 557L0 514L0 514L0 471L0 471L0 429L0 429L0 386L0 386L0 343L0 343L0 300L0 300L0 257L0 257L0 214L0 214L0 171L0 171L0 129L0 129L0 86L0 86L0 43L0 43L0 0L0 0Z" fill="#7000bb"></path><path d="M225 0L299 0L299 43L208 43L208 86L219 86L219 129L253 129L253 171L173 171L173 214L230 214L230 257L267 257L267 300L285 300L285 343L242 343L242 386L238 386L238 429L237 429L237 471L259 471L259 514L157 514L157 557L182 557L182 600L0 600L0 557L0 557L0 514L0 514L0 471L0 471L0 429L0 429L0 386L0 386L0 343L0 343L0 300L0 300L0 257L0 257L0 214L0 214L0 171L0 171L0 129L0 129L0 86L0 86L0 43L0 43L0 0L0 0Z" fill="#6300a5"></path><path d="M67 0L159 0L159 43L110 43L110 86L118 86L118 129L132 129L132 171L155 171L155 214L140 214L140 257L165 257L165 300L131 300L131 343L138 343L138 386L151 386L151 429L166 429L166 471L102 471L102 514L159 514L159 557L88 557L88 600L0 600L0 557L0 557L0 514L0 514L0 471L0 471L0 429L0 429L0 386L0 386L0 343L0 343L0 300L0 300L0 257L0 257L0 214L0 214L0 171L0 171L0 129L0 129L0 86L0 86L0 43L0 43L0 0L0 0Z" fill="#560090"></path></svg>